<svg width="60" height="80" viewBox="0 0 60 80" xmlns="http://www.w3.org/2000/svg">
  <!-- ゴールフラグ -->
  <defs>
    <!-- グラデーション定義 -->
    <linearGradient id="poleGradient" x1="0%" y1="0%" x2="100%" y2="0%">
      <stop offset="0%" style="stop-color:#A0522D;stop-opacity:1" />
      <stop offset="50%" style="stop-color:#8B4513;stop-opacity:1" />
      <stop offset="100%" style="stop-color:#654321;stop-opacity:1" />
    </linearGradient>
    
    <linearGradient id="flagGradient" x1="0%" y1="0%" x2="0%" y2="100%">
      <stop offset="0%" style="stop-color:#FF4444;stop-opacity:1" />
      <stop offset="50%" style="stop-color:#FF0000;stop-opacity:1" />
      <stop offset="100%" style="stop-color:#CC0000;stop-opacity:1" />
    </linearGradient>
  </defs>
  
  <!-- ポール -->
  <rect x="28" y="0" width="4" height="80" fill="url(#poleGradient)" />
  
  <!-- ポールの影 -->
  <rect x="32" y="0" width="1" height="80" fill="rgba(0,0,0,0.3)" />
  
  <!-- 旗本体 -->
  <path d="M 30 0 L 54 8 L 51 20 L 54 32 L 30 40 Z" fill="url(#flagGradient)" />
  
  <!-- 旗の縁取り -->
  <path d="M 30 0 L 54 8 L 51 20 L 54 32 L 30 40 Z" fill="none" stroke="#CC0000" stroke-width="2" />
  
  <!-- 旗の装飾線 -->
  <path d="M 35 10 L 50 15" stroke="#FFAAAA" stroke-width="1" />
  <path d="M 35 20 L 48 24" stroke="#FFAAAA" stroke-width="1" />
  <path d="M 35 30 L 50 33" stroke="#FFAAAA" stroke-width="1" />
  
  <!-- 風になびく効果 -->
  <path d="M 30 5 Q 40 12 30 15 Q 45 22 30 25 Q 40 32 30 35" fill="none" stroke="rgba(255,255,255,0.4)" stroke-width="1" />
</svg>