<svg width="50" height="50" viewBox="0 0 50 50" xmlns="http://www.w3.org/2000/svg">
  <!-- プレイヤージャンプ状態 -->
  <defs>
    <!-- グラデーション定義 -->
    <radialGradient id="skinGradient" cx="50%" cy="40%" r="60%">
      <stop offset="0%" style="stop-color:var(--skin-light, #F9D5B3);stop-opacity:1" />
      <stop offset="100%" style="stop-color:var(--skin-color, #F4C2A1);stop-opacity:1" />
    </radialGradient>
    
    <linearGradient id="clothGradient" x1="0%" y1="0%" x2="0%" y2="100%">
      <stop offset="0%" style="stop-color:var(--cloth-color, #6B8EC8);stop-opacity:1" />
      <stop offset="100%" style="stop-color:var(--cloth-color-dark, #5A7BB8);stop-opacity:1" />
    </linearGradient>
    
    <linearGradient id="hatGradient" x1="0%" y1="0%" x2="0%" y2="100%">
      <stop offset="0%" style="stop-color:var(--hat-color, #8BC34A);stop-opacity:1" />
      <stop offset="100%" style="stop-color:var(--hat-color-dark, #7CB342);stop-opacity:1" />
    </linearGradient>
  </defs>
  
  <!-- 動きの軌跡線 -->
  <path d="M 5 15 L 7.5 17.5" stroke="rgba(255,255,255,0.6)" stroke-width="2" stroke-linecap="round" fill="none" />
  <path d="M 42.5 12.5 L 45 15" stroke="rgba(255,255,255,0.6)" stroke-width="2" stroke-linecap="round" fill="none" />
  
  <!-- 後ろの手（大きく振り上げ） -->
  <circle cx="2.5" cy="12.5" r="3" fill="url(#skinGradient)" />
  
  <!-- 後ろの足（曲げて上げ） -->
  <circle cx="7.5" cy="32.5" r="3.5" fill="url(#skinGradient)" />
  
  <!-- 体（縮めたポーズ） -->
  <ellipse cx="25" cy="30" rx="8" ry="7" fill="url(#clothGradient)" />
  
  <!-- 頭 -->
  <ellipse cx="25" cy="15" rx="7.5" ry="6.5" fill="url(#skinGradient)" />
  
  <!-- 帽子本体 -->
  <path d="M 17.5 15 Q 17.5 8 25 8.5 Q 32.5 8 32.5 15 Q 32.5 18 25 18.5 Q 17.5 18 17.5 15 Z" fill="url(#hatGradient)" />
  
  <!-- 帽子のつば -->
  <ellipse cx="32.5" cy="15" rx="6.25" ry="2.5" fill="url(#hatGradient)" />
  
  <!-- 目（集中した表情） -->
  <circle cx="30" cy="13.5" r="3" fill="white" />
  <circle cx="30" cy="16" r="2" fill="var(--eye-color, #2C2C2C)" />
  <circle cx="29.25" cy="15" r="0.75" fill="white" />
  
  <!-- 鼻 -->
  <ellipse cx="36" cy="16" rx="0.625" ry="0.375" fill="var(--nose-color, #E6967A)" />
  
  <!-- 口（集中した表情） -->
  <path d="M 32 18 Q 34 18.5 36 18" stroke="var(--mouth-color, #8B4513)" stroke-width="1.5" stroke-linecap="round" fill="none" />
  
  <!-- 前の手（大きく振り上げ） -->
  <circle cx="45" cy="10" r="3.5" fill="url(#skinGradient)" />
  
  <!-- 前の足（曲げて上げ） -->
  <circle cx="42.5" cy="35" r="4" fill="url(#skinGradient)" />
</svg>