<svg width="50" height="50" viewBox="0 0 50 50" xmlns="http://www.w3.org/2000/svg">
  <!-- スライムキャラクター -->
  <defs>
    <!-- グラデーション定義 -->
    <radialGradient id="bodyGradient" cx="50%" cy="70%" r="50%">
      <stop offset="0%" style="stop-color:#7FFF7F;stop-opacity:1" />
      <stop offset="60%" style="stop-color:#4CAF50;stop-opacity:1" />
      <stop offset="100%" style="stop-color:#2E7D32;stop-opacity:1" />
    </radialGradient>
    
    <radialGradient id="headGradient" cx="50%" cy="40%" r="40%">
      <stop offset="0%" style="stop-color:#A5FF7F;stop-opacity:1" />
      <stop offset="70%" style="stop-color:#4CAF50;stop-opacity:1" />
      <stop offset="100%" style="stop-color:#2E7D32;stop-opacity:1" />
    </radialGradient>
    
    <!-- グロー効果 -->
    <filter id="glow">
      <feGaussianBlur stdDeviation="3" result="coloredBlur"/>
      <feMerge> 
        <feMergeNode in="coloredBlur"/>
        <feMergeNode in="SourceGraphic"/>
      </feMerge>
    </filter>
  </defs>
  
  <!-- スライム本体 -->
  <ellipse cx="25" cy="35" rx="20" ry="15" fill="url(#bodyGradient)" filter="url(#glow)" />
  
  <!-- スライム頭部（有機的な形状） -->
  <path d="M 10 20 Q 10 8 25 8.5 Q 40 8 40 20 Q 36 32 25 32.5 Q 14 32 10 20 Z" fill="url(#headGradient)" />
  
  <!-- ハイライト効果 -->
  <ellipse cx="20" cy="17.5" rx="7.5" ry="6" fill="rgba(255,255,255,0.3)" />
  
  <!-- 目の白い部分 -->
  <ellipse cx="19" cy="17.5" rx="4" ry="4" fill="white" />
  <ellipse cx="31" cy="17.5" rx="4" ry="4" fill="white" />
  
  <!-- 瞳 -->
  <circle cx="19" cy="18.5" r="2" fill="#1A1A1A" />
  <circle cx="31" cy="18.5" r="2" fill="#1A1A1A" />
  
  <!-- 瞳のハイライト -->
  <circle cx="18.25" cy="17.5" r="0.75" fill="white" />
  <circle cx="30.25" cy="17.5" r="0.75" fill="white" />
  
  <!-- 口（可愛い笑顔） -->
  <path d="M 22 22.5 Q 25 25 28 22.5" stroke="#2E7D32" stroke-width="1.5" stroke-linecap="round" fill="none" />
</svg>